# xmcd
#
# Track frame offsets:
#	150
#	21078
#	41706
#	57009
#	76887
#	91590
#	110043
#	133821
#	155949
#	182352
#	196380
#	206133
#	219936
#	228414
#	246491
#	255719
#	278597
#	290750
#	302378
#
# Disc length: 4265 seconds
#
# Revision: 1
# Processed by: cddbd v1.5.2PL0 Copyright (c) Steve Scherf et al.
# Submitted via: audiograbber 1.83.01
#
DISCID=0f10a713
DTITLE=Russie - Ensemble de chants et danse de l'armée rouge
DYEAR=1900
DGENRE=
TTITLE0=Kalinka
TTITLE1=Oh, lasteppe large
TTITLE2=La chanson des haleurs
TTITLE3=La cloche sonne d'une manière monotone
TTITLE4=Oh, la nuit
TTITLE5=La chanson du chène et de l' orme
TTITLE6=Des yeux noirs
TTITLE7=Des vagues froides clapotent
TTITLE8=La sonnerie des cloches du soir
TTITLE9=Le long de Pyterskaja
TTITLE10=j'ai parcouru le monde entier
TTITLE11=Le champ
TTITLE12=La chanson des kazaks
TTITLE13=Le choeur de l' opéra Ermani
TTITLE14=Les couplets de Méphistophel de l' opéra de Guno <<Faoust>>
TTITLE15=Les coiplets de l' Escamillio de l' opéra de Bizet <<Carmen>>
TTITLE16=L'adieu de Slavianka (V. Agapkin)
TTITLE17=Katioucha (M. Blanter)
TTITLE18=Les soirs non loin de Moscou (V. Soloniev-Sédoï)
EXTD=
EXTT0=
EXTT1=
EXTT2=
EXTT3=
EXTT4=
EXTT5=
EXTT6=
EXTT7=
EXTT8=
EXTT9=
EXTT10=
EXTT11=
EXTT12=
EXTT13=
EXTT14=
EXTT15=
EXTT16=
EXTT17=
EXTT18=
PLAYORDER=
